<mxfile host="app.diagrams.net" modified="2024-03-29T20:18:43.800Z" agent="Mozilla/5.0 (Windows NT 10.0; Win64; x64) AppleWebKit/537.36 (KHTML, like Gecko) Chrome/123.0.0.0 Safari/537.36" etag="LZdxTBgi6XtJr_g0fjJH" version="24.2.1" type="device">
  <diagram name="Pagina-1" id="hCMvARxHK98VJ9e5h0df">
    <mxGraphModel dx="1539" dy="868" grid="1" gridSize="10" guides="1" tooltips="1" connect="1" arrows="1" fold="1" page="1" pageScale="1" pageWidth="827" pageHeight="1169" math="0" shadow="0">
      <root>
        <mxCell id="0" />
        <mxCell id="1" parent="0" />
        <mxCell id="xF5MloBliGyO7JfxFLcV-14" value="id" style="rounded=0;whiteSpace=wrap;html=1;fillColor=#d5e8d4;strokeColor=#82b366;" parent="1" vertex="1">
          <mxGeometry x="40" y="100" width="130" height="40" as="geometry" />
        </mxCell>
        <mxCell id="xF5MloBliGyO7JfxFLcV-15" value="name" style="rounded=0;whiteSpace=wrap;html=1;" parent="1" vertex="1">
          <mxGeometry x="170" y="100" width="130" height="40" as="geometry" />
        </mxCell>
        <mxCell id="xF5MloBliGyO7JfxFLcV-16" value="surname" style="rounded=0;whiteSpace=wrap;html=1;" parent="1" vertex="1">
          <mxGeometry x="300" y="100" width="130" height="40" as="geometry" />
        </mxCell>
        <mxCell id="xF5MloBliGyO7JfxFLcV-17" value="birth_date" style="rounded=0;whiteSpace=wrap;html=1;" parent="1" vertex="1">
          <mxGeometry x="430" y="100" width="130" height="40" as="geometry" />
        </mxCell>
        <mxCell id="xF5MloBliGyO7JfxFLcV-18" value="Users" style="text;html=1;align=center;verticalAlign=middle;resizable=0;points=[];autosize=1;strokeColor=none;fillColor=none;fontSize=16;" parent="1" vertex="1">
          <mxGeometry x="25" y="70" width="70" height="30" as="geometry" />
        </mxCell>
        <mxCell id="xF5MloBliGyO7JfxFLcV-19" value="id" style="rounded=0;whiteSpace=wrap;html=1;fillColor=#d5e8d4;strokeColor=#82b366;" parent="1" vertex="1">
          <mxGeometry x="40" y="219" width="130" height="40" as="geometry" />
        </mxCell>
        <mxCell id="xF5MloBliGyO7JfxFLcV-20" value="name" style="rounded=0;whiteSpace=wrap;html=1;" parent="1" vertex="1">
          <mxGeometry x="170" y="219" width="130" height="40" as="geometry" />
        </mxCell>
        <mxCell id="xF5MloBliGyO7JfxFLcV-23" value="Module" style="text;html=1;align=center;verticalAlign=middle;resizable=0;points=[];autosize=1;strokeColor=none;fillColor=none;fontSize=16;" parent="1" vertex="1">
          <mxGeometry x="25" y="189" width="80" height="30" as="geometry" />
        </mxCell>
        <mxCell id="xF5MloBliGyO7JfxFLcV-24" value="category" style="rounded=0;whiteSpace=wrap;html=1;" parent="1" vertex="1">
          <mxGeometry x="300" y="219" width="130" height="40" as="geometry" />
        </mxCell>
        <mxCell id="xF5MloBliGyO7JfxFLcV-25" value="expiration_date" style="rounded=0;whiteSpace=wrap;html=1;" parent="1" vertex="1">
          <mxGeometry x="430" y="219" width="130" height="40" as="geometry" />
        </mxCell>
        <mxCell id="xF5MloBliGyO7JfxFLcV-26" value="id" style="rounded=0;whiteSpace=wrap;html=1;fillColor=#d5e8d4;strokeColor=#82b366;" parent="1" vertex="1">
          <mxGeometry x="40" y="339" width="130" height="40" as="geometry" />
        </mxCell>
        <mxCell id="xF5MloBliGyO7JfxFLcV-27" value="name" style="rounded=0;whiteSpace=wrap;html=1;" parent="1" vertex="1">
          <mxGeometry x="170" y="339" width="130" height="40" as="geometry" />
        </mxCell>
        <mxCell id="xF5MloBliGyO7JfxFLcV-28" value="Noticeboard" style="text;html=1;align=center;verticalAlign=middle;resizable=0;points=[];autosize=1;strokeColor=none;fillColor=none;fontSize=16;" parent="1" vertex="1">
          <mxGeometry x="30" y="309" width="110" height="30" as="geometry" />
        </mxCell>
        <mxCell id="xF5MloBliGyO7JfxFLcV-29" value="category" style="rounded=0;whiteSpace=wrap;html=1;" parent="1" vertex="1">
          <mxGeometry x="300" y="339" width="130" height="40" as="geometry" />
        </mxCell>
        <mxCell id="xF5MloBliGyO7JfxFLcV-30" value="number" style="rounded=0;whiteSpace=wrap;html=1;" parent="1" vertex="1">
          <mxGeometry x="430" y="339" width="130" height="40" as="geometry" />
        </mxCell>
        <mxCell id="xF5MloBliGyO7JfxFLcV-32" value="date" style="rounded=0;whiteSpace=wrap;html=1;" parent="1" vertex="1">
          <mxGeometry x="560" y="339" width="130" height="40" as="geometry" />
        </mxCell>
        <mxCell id="xF5MloBliGyO7JfxFLcV-33" value="notice_id" style="rounded=0;whiteSpace=wrap;html=1;fillColor=#ffe6cc;strokeColor=#d79b00;" parent="1" vertex="1">
          <mxGeometry x="40" y="449" width="130" height="40" as="geometry" />
        </mxCell>
        <mxCell id="xF5MloBliGyO7JfxFLcV-34" value="user_id" style="rounded=0;whiteSpace=wrap;html=1;fillColor=#ffe6cc;strokeColor=#d79b00;" parent="1" vertex="1">
          <mxGeometry x="170" y="449" width="130" height="40" as="geometry" />
        </mxCell>
        <mxCell id="xF5MloBliGyO7JfxFLcV-35" value="Likes" style="text;html=1;align=center;verticalAlign=middle;resizable=0;points=[];autosize=1;strokeColor=none;fillColor=none;fontSize=16;" parent="1" vertex="1">
          <mxGeometry x="30" y="419" width="60" height="30" as="geometry" />
        </mxCell>
        <mxCell id="xF5MloBliGyO7JfxFLcV-36" value="notice_id" style="rounded=0;whiteSpace=wrap;html=1;fillColor=#ffe6cc;strokeColor=#d79b00;" parent="1" vertex="1">
          <mxGeometry x="40" y="559" width="130" height="40" as="geometry" />
        </mxCell>
        <mxCell id="xF5MloBliGyO7JfxFLcV-37" value="user_id" style="rounded=0;whiteSpace=wrap;html=1;fillColor=#ffe6cc;strokeColor=#d79b00;" parent="1" vertex="1">
          <mxGeometry x="170" y="559" width="130" height="40" as="geometry" />
        </mxCell>
        <mxCell id="xF5MloBliGyO7JfxFLcV-38" value="Has Viewed" style="text;html=1;align=center;verticalAlign=middle;resizable=0;points=[];autosize=1;strokeColor=none;fillColor=none;fontSize=16;" parent="1" vertex="1">
          <mxGeometry x="30" y="529" width="110" height="30" as="geometry" />
        </mxCell>
        <mxCell id="xF5MloBliGyO7JfxFLcV-39" value="id" style="rounded=0;whiteSpace=wrap;html=1;fillColor=#d5e8d4;strokeColor=#82b366;" parent="1" vertex="1">
          <mxGeometry x="40" y="669" width="130" height="40" as="geometry" />
        </mxCell>
        <mxCell id="xF5MloBliGyO7JfxFLcV-40" value="name" style="rounded=0;whiteSpace=wrap;html=1;" parent="1" vertex="1">
          <mxGeometry x="170" y="669" width="130" height="40" as="geometry" />
        </mxCell>
        <mxCell id="xF5MloBliGyO7JfxFLcV-41" value="Attachment" style="text;html=1;align=center;verticalAlign=middle;resizable=0;points=[];autosize=1;strokeColor=none;fillColor=none;fontSize=16;" parent="1" vertex="1">
          <mxGeometry x="30" y="639" width="100" height="30" as="geometry" />
        </mxCell>
        <mxCell id="xF5MloBliGyO7JfxFLcV-42" value="file" style="rounded=0;whiteSpace=wrap;html=1;" parent="1" vertex="1">
          <mxGeometry x="300" y="669" width="130" height="40" as="geometry" />
        </mxCell>
        <mxCell id="xF5MloBliGyO7JfxFLcV-43" value="number" style="rounded=0;whiteSpace=wrap;html=1;" parent="1" vertex="1">
          <mxGeometry x="430" y="669" width="130" height="40" as="geometry" />
        </mxCell>
        <mxCell id="xF5MloBliGyO7JfxFLcV-44" value="notice_id" style="rounded=0;whiteSpace=wrap;html=1;fillColor=#ffe6cc;strokeColor=#d79b00;" parent="1" vertex="1">
          <mxGeometry x="40" y="770" width="130" height="40" as="geometry" />
        </mxCell>
        <mxCell id="xF5MloBliGyO7JfxFLcV-45" value="attach_id" style="rounded=0;whiteSpace=wrap;html=1;fillColor=#ffe6cc;strokeColor=#d79b00;" parent="1" vertex="1">
          <mxGeometry x="170" y="770" width="130" height="40" as="geometry" />
        </mxCell>
        <mxCell id="xF5MloBliGyO7JfxFLcV-46" value="Have" style="text;html=1;align=center;verticalAlign=middle;resizable=0;points=[];autosize=1;strokeColor=none;fillColor=none;fontSize=16;" parent="1" vertex="1">
          <mxGeometry x="30" y="740" width="60" height="30" as="geometry" />
        </mxCell>
        <mxCell id="xF5MloBliGyO7JfxFLcV-47" value="id" style="rounded=0;whiteSpace=wrap;html=1;fillColor=#d5e8d4;strokeColor=#82b366;" parent="1" vertex="1">
          <mxGeometry x="40" y="870" width="130" height="40" as="geometry" />
        </mxCell>
        <mxCell id="xF5MloBliGyO7JfxFLcV-48" value="name" style="rounded=0;whiteSpace=wrap;html=1;" parent="1" vertex="1">
          <mxGeometry x="170" y="870" width="130" height="40" as="geometry" />
        </mxCell>
        <mxCell id="xF5MloBliGyO7JfxFLcV-49" value="Groups" style="text;html=1;align=center;verticalAlign=middle;resizable=0;points=[];autosize=1;strokeColor=none;fillColor=none;fontSize=16;" parent="1" vertex="1">
          <mxGeometry x="30" y="840" width="80" height="30" as="geometry" />
        </mxCell>
        <mxCell id="xF5MloBliGyO7JfxFLcV-50" value="target" style="rounded=0;whiteSpace=wrap;html=1;" parent="1" vertex="1">
          <mxGeometry x="300" y="870" width="130" height="40" as="geometry" />
        </mxCell>
        <mxCell id="xF5MloBliGyO7JfxFLcV-51" value="members" style="rounded=0;whiteSpace=wrap;html=1;" parent="1" vertex="1">
          <mxGeometry x="430" y="870" width="130" height="40" as="geometry" />
        </mxCell>
        <mxCell id="xF5MloBliGyO7JfxFLcV-52" value="expiration_date" style="rounded=0;whiteSpace=wrap;html=1;" parent="1" vertex="1">
          <mxGeometry x="560" y="870" width="130" height="40" as="geometry" />
        </mxCell>
        <mxCell id="xF5MloBliGyO7JfxFLcV-53" value="notice_id" style="rounded=0;whiteSpace=wrap;html=1;fillColor=#ffe6cc;strokeColor=#d79b00;" parent="1" vertex="1">
          <mxGeometry x="40" y="980" width="130" height="40" as="geometry" />
        </mxCell>
        <mxCell id="xF5MloBliGyO7JfxFLcV-54" value="user_id" style="rounded=0;whiteSpace=wrap;html=1;fillColor=#ffe6cc;strokeColor=#d79b00;" parent="1" vertex="1">
          <mxGeometry x="170" y="980" width="130" height="40" as="geometry" />
        </mxCell>
        <mxCell id="xF5MloBliGyO7JfxFLcV-55" value="Is Part Of" style="text;html=1;align=center;verticalAlign=middle;resizable=0;points=[];autosize=1;strokeColor=none;fillColor=none;fontSize=16;" parent="1" vertex="1">
          <mxGeometry x="30" y="950" width="90" height="30" as="geometry" />
        </mxCell>
        <mxCell id="xF5MloBliGyO7JfxFLcV-56" value="user_id" style="rounded=0;whiteSpace=wrap;html=1;fillColor=#ffe6cc;strokeColor=#d79b00;" parent="1" vertex="1">
          <mxGeometry x="40" y="1090" width="130" height="40" as="geometry" />
        </mxCell>
        <mxCell id="xF5MloBliGyO7JfxFLcV-57" value="module_id" style="rounded=0;whiteSpace=wrap;html=1;fillColor=#ffe6cc;strokeColor=#d79b00;" parent="1" vertex="1">
          <mxGeometry x="170" y="1090" width="130" height="40" as="geometry" />
        </mxCell>
        <mxCell id="xF5MloBliGyO7JfxFLcV-58" value="Compiles" style="text;html=1;align=center;verticalAlign=middle;resizable=0;points=[];autosize=1;strokeColor=none;fillColor=none;fontSize=16;" parent="1" vertex="1">
          <mxGeometry x="30" y="1060" width="90" height="30" as="geometry" />
        </mxCell>
        <mxCell id="xF5MloBliGyO7JfxFLcV-59" value="notice_id" style="rounded=0;whiteSpace=wrap;html=1;fillColor=#ffe6cc;strokeColor=#d79b00;" parent="1" vertex="1">
          <mxGeometry x="40" y="1190" width="130" height="40" as="geometry" />
        </mxCell>
        <mxCell id="xF5MloBliGyO7JfxFLcV-60" value="group_id" style="rounded=0;whiteSpace=wrap;html=1;fillColor=#ffe6cc;strokeColor=#d79b00;" parent="1" vertex="1">
          <mxGeometry x="170" y="1190" width="130" height="40" as="geometry" />
        </mxCell>
        <mxCell id="xF5MloBliGyO7JfxFLcV-61" value="Refers" style="text;html=1;align=center;verticalAlign=middle;resizable=0;points=[];autosize=1;strokeColor=none;fillColor=none;fontSize=16;" parent="1" vertex="1">
          <mxGeometry x="30" y="1160" width="70" height="30" as="geometry" />
        </mxCell>
        <mxCell id="xF5MloBliGyO7JfxFLcV-62" value="file" style="rounded=0;whiteSpace=wrap;html=1;" parent="1" vertex="1">
          <mxGeometry x="300" y="1090" width="130" height="40" as="geometry" />
        </mxCell>
        <mxCell id="xF5MloBliGyO7JfxFLcV-63" value="" style="endArrow=classic;html=1;rounded=0;fontSize=12;startSize=8;endSize=8;curved=0;endFill=1;" parent="1" source="xF5MloBliGyO7JfxFLcV-33" edge="1">
          <mxGeometry width="50" height="50" relative="1" as="geometry">
            <mxPoint x="370" y="360" as="sourcePoint" />
            <mxPoint x="160" y="380" as="targetPoint" />
            <Array as="points">
              <mxPoint x="105" y="520" />
              <mxPoint x="30" y="520" />
              <mxPoint x="30" y="420" />
              <mxPoint x="160" y="420" />
            </Array>
          </mxGeometry>
        </mxCell>
        <mxCell id="xF5MloBliGyO7JfxFLcV-64" value="" style="endArrow=none;html=1;rounded=0;fontSize=12;startSize=8;endSize=8;curved=0;exitX=0.115;exitY=1.018;exitDx=0;exitDy=0;exitPerimeter=0;endFill=0;fillColor=#ffcccc;strokeColor=#36393d;startArrow=classic;startFill=1;" parent="1" source="xF5MloBliGyO7JfxFLcV-14" target="xF5MloBliGyO7JfxFLcV-34" edge="1">
          <mxGeometry width="50" height="50" relative="1" as="geometry">
            <mxPoint x="370" y="360" as="sourcePoint" />
            <mxPoint x="420" y="310" as="targetPoint" />
            <Array as="points">
              <mxPoint x="55" y="190" />
              <mxPoint x="740" y="190" />
              <mxPoint x="740" y="530" />
              <mxPoint x="235" y="530" />
            </Array>
          </mxGeometry>
        </mxCell>
        <mxCell id="xF5MloBliGyO7JfxFLcV-65" value="" style="endArrow=none;html=1;rounded=0;fontSize=12;startSize=8;endSize=8;curved=0;exitX=0.25;exitY=1;exitDx=0;exitDy=0;endFill=0;startArrow=classic;startFill=1;" parent="1" source="xF5MloBliGyO7JfxFLcV-14" target="xF5MloBliGyO7JfxFLcV-37" edge="1">
          <mxGeometry width="50" height="50" relative="1" as="geometry">
            <mxPoint x="370" y="480" as="sourcePoint" />
            <mxPoint x="420" y="430" as="targetPoint" />
            <Array as="points">
              <mxPoint x="73" y="180" />
              <mxPoint x="750" y="180" />
              <mxPoint x="750" y="630" />
              <mxPoint x="235" y="630" />
            </Array>
          </mxGeometry>
        </mxCell>
        <mxCell id="xF5MloBliGyO7JfxFLcV-66" value="" style="endArrow=classic;html=1;rounded=0;fontSize=12;startSize=8;endSize=8;curved=0;entryX=0.75;entryY=1;entryDx=0;entryDy=0;endFill=1;" parent="1" source="xF5MloBliGyO7JfxFLcV-36" target="xF5MloBliGyO7JfxFLcV-26" edge="1">
          <mxGeometry width="50" height="50" relative="1" as="geometry">
            <mxPoint x="370" y="480" as="sourcePoint" />
            <mxPoint x="105" y="379" as="targetPoint" />
            <Array as="points">
              <mxPoint x="105" y="630" />
              <mxPoint x="20" y="630" />
              <mxPoint x="20" y="410" />
              <mxPoint x="138" y="410" />
            </Array>
          </mxGeometry>
        </mxCell>
        <mxCell id="xF5MloBliGyO7JfxFLcV-67" value="" style="endArrow=classic;html=1;rounded=0;fontSize=12;startSize=8;endSize=8;curved=0;entryX=0.5;entryY=1;entryDx=0;entryDy=0;endFill=1;" parent="1" source="xF5MloBliGyO7JfxFLcV-44" target="xF5MloBliGyO7JfxFLcV-26" edge="1">
          <mxGeometry width="50" height="50" relative="1" as="geometry">
            <mxPoint x="350" y="570" as="sourcePoint" />
            <mxPoint x="400" y="520" as="targetPoint" />
            <Array as="points">
              <mxPoint x="105" y="830" />
              <mxPoint x="10" y="830" />
              <mxPoint x="10" y="400" />
              <mxPoint x="105" y="400" />
            </Array>
          </mxGeometry>
        </mxCell>
        <mxCell id="xF5MloBliGyO7JfxFLcV-68" value="" style="endArrow=classic;html=1;rounded=0;fontSize=12;startSize=8;endSize=8;curved=0;endFill=1;" parent="1" source="xF5MloBliGyO7JfxFLcV-45" target="xF5MloBliGyO7JfxFLcV-39" edge="1">
          <mxGeometry width="50" height="50" relative="1" as="geometry">
            <mxPoint x="360" y="770" as="sourcePoint" />
            <mxPoint x="410" y="720" as="targetPoint" />
            <Array as="points">
              <mxPoint x="235" y="830" />
              <mxPoint x="350" y="830" />
              <mxPoint x="350" y="730" />
              <mxPoint x="105" y="730" />
            </Array>
          </mxGeometry>
        </mxCell>
        <mxCell id="xF5MloBliGyO7JfxFLcV-69" value="" style="endArrow=classic;html=1;rounded=0;fontSize=12;startSize=8;endSize=8;curved=0;entryX=0.25;entryY=1;entryDx=0;entryDy=0;endFill=1;" parent="1" source="xF5MloBliGyO7JfxFLcV-53" target="xF5MloBliGyO7JfxFLcV-26" edge="1">
          <mxGeometry width="50" height="50" relative="1" as="geometry">
            <mxPoint x="390" y="580" as="sourcePoint" />
            <mxPoint x="440" y="530" as="targetPoint" />
            <Array as="points">
              <mxPoint x="105" y="1040" />
              <mxPoint y="1040" />
              <mxPoint y="390" />
              <mxPoint x="73" y="390" />
            </Array>
          </mxGeometry>
        </mxCell>
        <mxCell id="xF5MloBliGyO7JfxFLcV-70" value="" style="endArrow=classic;html=1;rounded=0;fontSize=12;curved=0;strokeColor=default;endFill=1;" parent="1" source="xF5MloBliGyO7JfxFLcV-59" target="xF5MloBliGyO7JfxFLcV-26" edge="1">
          <mxGeometry width="50" height="50" relative="1" as="geometry">
            <mxPoint x="-50" y="360" as="sourcePoint" />
            <mxPoint x="150" y="610" as="targetPoint" />
            <Array as="points">
              <mxPoint x="105" y="1250" />
              <mxPoint x="-10" y="1250" />
              <mxPoint x="-10" y="359" />
              <mxPoint x="20" y="359" />
            </Array>
          </mxGeometry>
        </mxCell>
        <mxCell id="xF5MloBliGyO7JfxFLcV-71" value="" style="endArrow=classic;html=1;rounded=0;fontSize=12;startSize=8;endSize=8;curved=0;endFill=1;" parent="1" source="xF5MloBliGyO7JfxFLcV-54" target="xF5MloBliGyO7JfxFLcV-14" edge="1">
          <mxGeometry width="50" height="50" relative="1" as="geometry">
            <mxPoint x="560" y="1040" as="sourcePoint" />
            <mxPoint x="610" y="990" as="targetPoint" />
            <Array as="points">
              <mxPoint x="235" y="1040" />
              <mxPoint x="760" y="1040" />
              <mxPoint x="760" y="170" />
              <mxPoint x="105" y="170" />
            </Array>
          </mxGeometry>
        </mxCell>
        <mxCell id="xF5MloBliGyO7JfxFLcV-72" value="" style="endArrow=classic;html=1;rounded=0;fontSize=12;startSize=8;endSize=8;curved=0;entryX=0.75;entryY=1;entryDx=0;entryDy=0;endFill=1;" parent="1" source="xF5MloBliGyO7JfxFLcV-56" target="xF5MloBliGyO7JfxFLcV-14" edge="1">
          <mxGeometry width="50" height="50" relative="1" as="geometry">
            <mxPoint x="400" y="790" as="sourcePoint" />
            <mxPoint x="410" y="450" as="targetPoint" />
            <Array as="points">
              <mxPoint x="105" y="1160" />
              <mxPoint x="770" y="1160" />
              <mxPoint x="770" y="160" />
              <mxPoint x="138" y="160" />
            </Array>
          </mxGeometry>
        </mxCell>
        <mxCell id="xF5MloBliGyO7JfxFLcV-73" value="" style="endArrow=none;html=1;rounded=0;fontSize=12;startSize=8;endSize=8;curved=0;" parent="1" source="xF5MloBliGyO7JfxFLcV-57" target="xF5MloBliGyO7JfxFLcV-19" edge="1">
          <mxGeometry width="50" height="50" relative="1" as="geometry">
            <mxPoint x="360" y="760" as="sourcePoint" />
            <mxPoint x="410" y="710" as="targetPoint" />
            <Array as="points">
              <mxPoint x="235" y="1150" />
              <mxPoint x="720" y="1150" />
              <mxPoint x="720" y="280" />
              <mxPoint x="105" y="280" />
            </Array>
          </mxGeometry>
        </mxCell>
        <mxCell id="xF5MloBliGyO7JfxFLcV-74" value="" style="endArrow=classic;html=1;rounded=0;fontSize=12;startSize=8;endSize=8;curved=0;endFill=1;" parent="1" source="xF5MloBliGyO7JfxFLcV-60" target="xF5MloBliGyO7JfxFLcV-47" edge="1">
          <mxGeometry width="50" height="50" relative="1" as="geometry">
            <mxPoint x="350" y="950" as="sourcePoint" />
            <mxPoint x="400" y="900" as="targetPoint" />
            <Array as="points">
              <mxPoint x="235" y="1250" />
              <mxPoint x="480" y="1250" />
              <mxPoint x="480" y="930" />
              <mxPoint x="105" y="930" />
            </Array>
          </mxGeometry>
        </mxCell>
      </root>
    </mxGraphModel>
  </diagram>
</mxfile>
